<?xml version="1.0" encoding="UTF-8"?>
<svg id="Camada_1" xmlns="http://www.w3.org/2000/svg" version="1.1" viewBox="0 0 1280 1024">
  <!-- Generator: Adobe Illustrator 29.0.1, SVG Export Plug-In . SVG Version: 2.1.0 Build 192)  -->
  <defs>
    <style>
      .st0, .st1 {
        fill: none;
        stroke: #f2f2f2;
        stroke-miterlimit: 10;
      }

      .st2 {
        fill: #f2f2f2;
      }

      .st1 {
        stroke-width: 3px;
      }

      .st3 {
        fill: #141e2f;
      }
    </style>
  </defs>
  <rect class="st3" x=".59" y="-9.55" width="1280" height="2525"/>
  <path class="st2" d="M865.61,373.05v1.33c0,1.93,3,1.93,3,0v-1.33c0-1.93-3-1.93-3,0v1.33c0,1.93,3,1.93,3,0v-1.33c0-1.93-3-1.93-3,0h0Z"/>
  <path class="st2" d="M809.85,546.91c.72-.72,1.44-1.44,2.16-2.16.27-.27.44-.68.44-1.06s-.16-.81-.44-1.06-.66-.46-1.06-.44-.77.15-1.06.44l-2.16,2.16c-.27.27-.44.68-.44,1.06s.16.81.44,1.06.66.46,1.06.44.77-.15,1.06-.44h0Z"/>
  <path class="st2" d="M335.03,371.29c.03-.14.08-.27.13-.4l-.15.36c.09-.21.21-.41.35-.59l-.23.3c.16-.21.35-.4.56-.56l-.3.23c.23-.17.47-.32.73-.43l-.36.15c.28-.12.57-.2.87-.24l-.4.05c.26-.03.53-.03.79,0l-.4-.05c.23.03.45.09.66.18l-.36-.15s.1.04.15.07c.37.18.75.26,1.16.15.35-.1.73-.36.9-.69.35-.67.22-1.69-.54-2.05-.64-.31-1.32-.5-2.04-.48s-1.37.2-2.02.5c-1.15.54-2.08,1.62-2.39,2.85-.19.76.25,1.66,1.05,1.85s1.64-.23,1.85-1.05h0Z"/>
  <path class="st2" d="M499.91,821.67h2.16c.38,0,.79-.17,1.06-.44s.46-.69.44-1.06-.14-.79-.44-1.06-.65-.44-1.06-.44h-2.16c-.38,0-.79.17-1.06.44s-.46.69-.44,1.06.14.79.44,1.06.65.44,1.06.44h0Z"/>
  <path class="st2" d="M577.67,383.19h2.16c.38,0,.79-.17,1.06-.44s.46-.69.44-1.06-.14-.79-.44-1.06-.65-.44-1.06-.44h-2.16c-.38,0-.79.17-1.06.44s-.46.69-.44,1.06.14.79.44,1.06.65.44,1.06.44h0Z"/>
  <path class="st2" d="M113.27,929.67h4.32c.78,0,1.54-.69,1.5-1.5s-.66-1.5-1.5-1.5h-4.32c-.78,0-1.54.69-1.5,1.5s.66,1.5,1.5,1.5h0Z"/>
  <path class="st2" d="M178.73,545.85v2.16c0,.38.17.79.44,1.06s.69.46,1.06.44.79-.14,1.06-.44.44-.65.44-1.06v-2.16c0-.38-.17-.79-.44-1.06s-.69-.46-1.06-.44-.79.14-1.06.44-.44.65-.44,1.06h0Z"/>
  <path class="st2" d="M789.35,953.43c1.93,0,1.93-3,0-3s-1.93,3,0,3h0Z"/>
  <path class="st2" d="M556.07,573.27c1.44,0,2.88,0,4.32,0,.78,0,1.54-.69,1.5-1.5s-.66-1.5-1.5-1.5c-1.44,0-2.88,0-4.32,0-.78,0-1.54.69-1.5,1.5s.66,1.5,1.5,1.5h0Z"/>
  <path class="st2" d="M902.98,776.12c1.41-1.47,2.83-2.93,4.24-4.4.55-.57.6-1.57,0-2.12s-1.54-.6-2.12,0c-1.41,1.47-2.83,2.93-4.24,4.4-.55.57-.6,1.57,0,2.12s1.54.6,2.12,0h0Z"/>
  <path class="st2" d="M52.79,707.19h2.16c.38,0,.79-.17,1.06-.44s.46-.69.44-1.06-.14-.79-.44-1.06-.65-.44-1.06-.44h-2.16c-.38,0-.79.17-1.06.44s-.46.69-.44,1.06.14.79.44,1.06.65.44,1.06.44h0Z"/>
  <path class="st2" d="M367.52,674.35c1.43.73,2.87,1.46,4.3,2.19.36.18.76.26,1.16.15.35-.1.73-.36.9-.69.36-.68.21-1.67-.54-2.05-1.43-.73-2.87-1.46-4.3-2.19-.36-.18-.76-.26-1.16-.15-.35.1-.73.36-.9.69-.36.68-.21,1.67.54,2.05h0Z"/>
  <g>
    <path class="st2" d="M557.05,983.68c-.48-10.21-2.7-20.28-6.61-29.72-.73-1.76-3.63-.99-2.89.8,3.81,9.2,6.04,18.98,6.51,28.92.09,1.92,3.09,1.93,3,0h0Z"/>
    <path class="st2" d="M550.59,954.47c.39-3.48-3.54-5.68-6.6-5.1-3.95.74-5.93,5-7.44,8.26-1.96,4.23-3.62,8.61-4.92,13.09-.64,2.21-1.31,4.48-1.62,6.77-.26,1.89-.02,3.88,1.37,5.31,2.43,2.49,6.31,1.47,9.06.17,1.93-.91,3.65-2.23,5.42-3.41,2.05-1.38,4.11-2.75,6.16-4.13s4.25-2.83,6.36-4.27c1.52-1.03,3.05-2.27,3.89-3.94s.82-3.57-.47-4.98-3.2-1.61-4.95-1.7c-11.33-.59-22.75-.1-34.01,1.16-1.18.13-1.8,1.16-1.3,2.26,2.91,6.38,10.69,7.79,16.35,10.71,6.72,3.47,12.44,8.68,16.54,15.04,1.04,1.62,3.64.12,2.59-1.51-4.07-6.33-9.64-11.65-16.21-15.35-3.05-1.72-6.34-2.87-9.51-4.32-2.95-1.35-5.77-3.02-7.17-6.07l-1.3,2.26c8.18-.92,16.4-1.38,24.63-1.38,1.97,0,3.95.03,5.92.09,1.67.05,3.57-.12,5.19.34,3.99,1.14-2.4,5.27-3.56,6.05-3.42,2.29-6.84,4.59-10.27,6.88-2.54,1.71-5.08,3.8-8.13,4.48-.92.21-2.12.33-2.92-.3-1.36-1.07-.72-3.26-.4-4.67.83-3.6,1.89-7.14,3.16-10.6.75-2.04,1.58-4.06,2.48-6.04.78-1.71,1.56-3.51,2.68-5.03.88-1.19,2.22-2.47,3.82-2.25,1.19.16,2.29.91,2.15,2.19-.22,1.92,2.79,1.9,3,0h0Z"/>
  </g>
  <path class="st2" d="M588.47,1026.87c1.93,0,1.93-3,0-3s-1.93,3,0,3h0Z"/>
  <path class="st2" d="M240.71,743.07h-2.16c-.38,0-.79.17-1.06.44s-.46.69-.44,1.06.14.79.44,1.06.65.44,1.06.44h2.16c.38,0,.79-.17,1.06-.44s.46-.69.44-1.06-.14-.79-.44-1.06-.65-.44-1.06-.44h0Z"/>
  <path class="st2" d="M516.26,958.43c-13.49,2.75-25.51,11.34-32.55,23.16-.99,1.66,1.6,3.17,2.59,1.51,6.67-11.2,18-19.19,30.76-21.78,1.89-.38,1.09-3.28-.8-2.89h0Z"/>
  <path class="st2" d="M519.05,968.67c-4.71-1.06-9.61.83-12.5,4.67-.49.65-.1,1.68.54,2.05.77.45,1.56.11,2.05-.54-.11.15.07-.09.11-.13.07-.08.14-.16.21-.24.16-.18.32-.35.49-.51s.34-.32.52-.48c.08-.07.16-.14.24-.2.08-.06.08-.07,0,0l.13-.09c.39-.27.79-.52,1.21-.75.21-.11.42-.21.64-.31.24-.11-.16.06.08-.03.12-.05.25-.1.37-.14.42-.15.85-.28,1.29-.38.23-.05.46-.1.7-.14.49-.08-.14.01.15-.02.1-.01.21-.02.31-.03.47-.04.95-.04,1.42-.01.13,0,.26.02.39.03.07,0,.24.03.07,0,.26.04.52.09.78.15.79.18,1.62-.24,1.85-1.05.21-.75-.25-1.67-1.05-1.85h0Z"/>
  <ellipse class="st0" cx="721.3" cy="353.26" rx="614.96" ry="328.93" transform="translate(-75.21 456.36) rotate(-33.47)"/>
  <ellipse class="st0" cx="733.7" cy="374.32" rx="683.39" ry="381.71" transform="translate(-89.58 399.83) rotate(-28.8)"/>
  <g>
    <circle class="st1" cx="831.95" cy="969.91" r="35.13"/>
    <path class="st2" d="M803.32,946.27c-4.65-3.61-10.25-7.66-16.48-7.18-4.99.39-10.22,4.01-10.79,9.27-.67,6.17,5.53,9.89,9.89,12.88,5.69,3.9,11.45,7.7,17.38,11.22,11.76,6.99,24.32,12.91,37.72,15.94,6.62,1.5,13.43,2.32,20.22,2.2,5.97-.11,12.47-.62,17.97-3.14,2.48-1.14,4.88-2.9,6.18-5.36,1.45-2.74,1.38-5.87.1-8.65-3.12-6.76-10.81-8.29-17.45-9.18-.81-.11-1.6.19-1.85,1.05-.2.7.25,1.74,1.05,1.85,5.22.7,11.49,1.47,14.74,6.18,1.36,1.97,1.99,4.45,1.06,6.74-.81,1.99-2.58,3.36-4.42,4.34-4.64,2.46-10.42,2.91-15.57,3.13-6.07.26-12.15-.25-18.11-1.39-11.96-2.28-23.29-6.96-33.95-12.77-5.31-2.9-10.47-6.07-15.53-9.37-2.57-1.68-5.11-3.39-7.64-5.12-2.23-1.53-4.61-2.97-6.51-4.92s-2.96-4.35-1.9-6.88c.94-2.25,3.19-3.9,5.47-4.61,5.94-1.86,11.88,2.45,16.31,5.89,1.51,1.17,3.65-.94,2.12-2.12h0Z"/>
  </g>
  <path class="st2" d="M686.39,764.07h5.76c.78,0,1.54-.69,1.5-1.5s-.66-1.5-1.5-1.5h-5.76c-.78,0-1.54.69-1.5,1.5s.66,1.5,1.5,1.5h0Z"/>
  <path class="st2" d="M1180.25,175.05v11.52c0,1.93,3,1.93,3,0v-11.52c0-1.93-3-1.93-3,0h0Z"/>
  <path class="st2" d="M447.35,254.31h2.88c.38,0,.79-.17,1.06-.44s.46-.69.44-1.06-.14-.79-.44-1.06-.65-.44-1.06-.44h-2.88c-.38,0-.79.17-1.06.44s-.46.69-.44,1.06.14.79.44,1.06.65.44,1.06.44h0Z"/>
  <path class="st2" d="M929.69,117.45v2.88c0,.38.17.79.44,1.06s.69.46,1.06.44.79-.14,1.06-.44.44-.65.44-1.06v-2.88c0-.38-.17-.79-.44-1.06s-.69-.46-1.06-.44-.79.14-1.06.44-.44.65-.44,1.06h0Z"/>
  <path class="st2" d="M746.87,317.67c1.93,0,1.93-3,0-3s-1.93,3,0,3h0Z"/>
  <path class="st2" d="M625.91,116.07c1.93,0,1.93-3,0-3s-1.93,3,0,3h0Z"/>
  <path class="st2" d="M1065.49,300.71c-.96.96-1.92,1.92-2.88,2.88-.27.27-.44.68-.44,1.06s.16.81.44,1.06.66.46,1.06.44.77-.15,1.06-.44c.96-.96,1.92-1.92,2.88-2.88.27-.27.44-.68.44-1.06s-.16-.81-.44-1.06-.66-.46-1.06-.44-.77.15-1.06.44h0Z"/>
  <path class="st2" d="M87.35,41.19c1.93,0,1.93-3,0-3s-1.93,3,0,3h0Z"/>
  <path class="st2" d="M67.19,245.67c1.93,0,1.93-3,0-3s-1.93,3,0,3h0Z"/>
  <path class="st2" d="M451.73,25.29v-2.88c0-.38-.17-.79-.44-1.06s-.69-.46-1.06-.44-.79.14-1.06.44-.44.65-.44,1.06v2.88c0,.38.17.79.44,1.06s.69.46,1.06.44.79-.14,1.06-.44.44-.65.44-1.06h0Z"/>
  <path class="st2" d="M1164.47,798.63c1.93,0,1.93-3,0-3s-1.93,3,0,3h0Z"/>
  <path class="st2" d="M396.89,988.65v4.32c0,.78.69,1.54,1.5,1.5s1.5-.66,1.5-1.5v-4.32c0-.78-.69-1.54-1.5-1.5s-1.5.66-1.5,1.5h0Z"/>
  <g>
    <circle class="st1" cx="884.91" cy="455.45" r="36.31"/>
    <path class="st2" d="M891.37,489.27c-2.03-3.81-1.96-8.56.29-12.27,1.8-2.96,4.75-4.98,7.64-6.78s6.13-3.59,8.83-5.92c2.89-2.5,4.7-5.65,5.66-9.33.55-2.13.88-4.31,1.44-6.43.29-1.07.62-2.14,1.12-3.13.24-.47.5-.92.8-1.35.12-.18.31-.36.41-.54.35-.57-.01.12-.5-.36l-.44-1.06.13-.46c-.96,1.68,1.63,3.19,2.59,1.51,1.3-2.28-1.88-3.42-3.48-2.16-1.71,1.35-2.67,3.88-3.29,5.89-1.3,4.27-1.35,9.06-4.13,12.75-2.47,3.28-6.25,5.3-9.68,7.39s-7.02,4.46-9.35,7.92c-3.15,4.67-3.27,10.91-.64,15.83.91,1.7,3.5.19,2.59-1.51h0Z"/>
    <path class="st2" d="M873.59,487.7c-2.88-4.32-3.77-9.72-2.52-14.76,1.22-4.9,4.42-8.41,8.25-11.51,3.47-2.81,7.32-5.28,10.2-8.74,1.43-1.72,2.59-3.63,3.27-5.77.82-2.59.77-5.34.62-8.02-.17-3.09-.59-6.53.87-9.39,1.38-2.7,4.26-4.26,7.25-4.18,1.93.05,1.93-2.95,0-3-2.89-.08-5.72,1.02-7.82,3.01s-3.13,4.82-3.38,7.71c-.27,3.08.26,6.16.17,9.24-.07,2.59-.77,4.95-2.21,7.1-2.67,3.99-7,6.66-10.69,9.61-4.12,3.29-7.62,7.09-9.16,12.25-1.79,5.99-.9,12.75,2.58,17.97,1.07,1.6,3.67.1,2.59-1.51h0Z"/>
    <path class="st2" d="M855.72,473.11c-.66-3.7-.17-7.6,1.32-11.05s4.08-6.15,7.04-8.54,5.81-4.55,7.34-7.95c1.75-3.88,1.34-8.18,1.18-12.31-.15-3.84.08-8.24,3.22-10.92,1.47-1.25-.66-3.37-2.12-2.12-2.88,2.45-3.87,6.22-4.09,9.87-.25,4.22.78,8.58-.36,12.72s-4.54,6.37-7.58,8.83-5.61,5.29-7.21,8.9c-1.88,4.22-2.44,8.81-1.62,13.36.34,1.9,3.23,1.09,2.89-.8h0Z"/>
  </g>
  <ellipse class="st0" cx="498.64" cy="120.48" rx="938.97" ry="775.43" transform="translate(16.24 294.96) rotate(-33.47)"/>
  <ellipse class="st0" cx="641.09" cy="393" rx="738.35" ry="451.92" transform="translate(-107.3 319.81) rotate(-25.92)"/>
  <path class="st2" d="M707.03,934.96c-4.08-8.82-5.55-18.82-4.13-28.44.28-1.88-2.58-2.71-2.89-.8-.81,5.05-6.12,8.08-10.4,9.95-5.02,2.2-10.55,3.03-16,2.57-1.57-.13-1.93,2.06-.76,2.8,4.31,2.72,6.8,7.47,7.64,12.4,1.04,6.08-.57,12.32-2.64,18.01l2.95.4c.36-4.92,3.79-9.09,7.83-11.65,4.88-3.1,10.68-4.27,16.26-5.44,1.89-.39,1.09-3.29-.8-2.89-6.18,1.29-12.68,2.65-17.92,6.37-4.53,3.21-7.95,7.96-8.37,13.61-.13,1.79,2.4,1.89,2.95.4,2.32-6.36,3.84-13.22,2.57-19.98-1.04-5.56-4.12-10.77-8.95-13.82l-.76,2.8c6.14.52,12.31-.6,17.9-3.15,4.84-2.21,10.48-5.89,11.4-11.57l-2.89-.8c-1.54,10.49-.02,21.13,4.43,30.75.81,1.75,3.4.23,2.59-1.51h0Z"/>
</svg>