<?xml version="1.0" encoding="UTF-8"?>
<svg xmlns="http://www.w3.org/2000/svg" viewBox="0 0 1280 2525">
  <defs>
    <style>
      .cls-1 {
        fill: #f2f2f2;
      }

      .cls-2 {
        fill: none;
        stroke: #f2f2f2;
        stroke-miterlimit: 10;
        stroke-width: 3px;
      }

      .cls-3 {
        fill: #141e2f;
      }
    </style>
  </defs>
  <g id="Camada_1">
    <rect class="cls-3" width="1280" height="2525"/>
  </g>
  <g id="Camada_2">
    <path class="cls-1" d="M865.02,382.6v1.33c0,1.93,3,1.93,3,0v-1.33c0-1.93-3-1.93-3,0v1.33c0,1.93,3,1.93,3,0v-1.33c0-1.93-3-1.93-3,0h0Z"/>
    <path class="cls-1" d="M809.26,556.46c.72-.72,1.44-1.44,2.16-2.16.27-.27.44-.68.44-1.06s-.16-.81-.44-1.06-.66-.46-1.06-.44-.77.15-1.06.44c-.72.72-1.44,1.44-2.16,2.16-.27.27-.44.68-.44,1.06s.16.81.44,1.06.66.46,1.06.44.77-.15,1.06-.44h0Z"/>
    <path class="cls-1" d="M334.43,380.84c.03-.14.08-.27.13-.4l-.15.36c.09-.21.21-.41.35-.59l-.23.3c.16-.21.35-.4.56-.56l-.3.23c.23-.17.47-.32.73-.43l-.36.15c.28-.12.57-.2.87-.24l-.4.05c.26-.03.53-.03.79,0l-.4-.05c.23.03.45.09.66.18l-.36-.15s.1.04.15.07c.37.18.75.26,1.16.15.35-.1.73-.36.9-.69.35-.67.22-1.69-.54-2.05-.64-.31-1.32-.5-2.04-.48s-1.37.2-2.02.5c-1.15.54-2.08,1.62-2.39,2.85-.19.76.25,1.66,1.05,1.85s1.64-.23,1.85-1.05h0Z"/>
    <path class="cls-1" d="M499.32,831.22h2.16c.38,0,.79-.17,1.06-.44s.46-.69.44-1.06-.14-.79-.44-1.06-.65-.44-1.06-.44h-2.16c-.38,0-.79.17-1.06.44s-.46.69-.44,1.06.14.79.44,1.06.65.44,1.06.44h0Z"/>
    <path class="cls-1" d="M577.08,392.74h2.16c.38,0,.79-.17,1.06-.44s.46-.69.44-1.06-.14-.79-.44-1.06-.65-.44-1.06-.44h-2.16c-.38,0-.79.17-1.06.44s-.46.69-.44,1.06.14.79.44,1.06.65.44,1.06.44h0Z"/>
    <path class="cls-1" d="M112.68,939.22h4.32c.78,0,1.54-.69,1.5-1.5s-.66-1.5-1.5-1.5h-4.32c-.78,0-1.54.69-1.5,1.5s.66,1.5,1.5,1.5h0Z"/>
    <path class="cls-1" d="M178.14,555.4v2.16c0,.38.17.79.44,1.06s.69.46,1.06.44.79-.14,1.06-.44.44-.65.44-1.06v-2.16c0-.38-.17-.79-.44-1.06s-.69-.46-1.06-.44-.79.14-1.06.44-.44.65-.44,1.06h0Z"/>
    <path class="cls-1" d="M788.76,962.98c1.93,0,1.93-3,0-3s-1.93,3,0,3h0Z"/>
    <path class="cls-1" d="M555.48,582.82c1.44,0,2.88,0,4.32,0,.78,0,1.54-.69,1.5-1.5s-.66-1.5-1.5-1.5c-1.44,0-2.88,0-4.32,0-.78,0-1.54.69-1.5,1.5s.66,1.5,1.5,1.5h0Z"/>
    <path class="cls-1" d="M902.39,785.66c1.41-1.47,2.83-2.93,4.24-4.4.55-.57.6-1.57,0-2.12s-1.54-.6-2.12,0c-1.41,1.47-2.83,2.93-4.24,4.4-.55.57-.6,1.57,0,2.12s1.54.6,2.12,0h0Z"/>
    <path class="cls-1" d="M52.2,716.74h2.16c.38,0,.79-.17,1.06-.44s.46-.69.44-1.06-.14-.79-.44-1.06-.65-.44-1.06-.44h-2.16c-.38,0-.79.17-1.06.44s-.46.69-.44,1.06.14.79.44,1.06.65.44,1.06.44h0Z"/>
    <path class="cls-1" d="M366.92,683.9c1.43.73,2.87,1.46,4.3,2.19.36.18.76.26,1.16.15.35-.1.73-.36.9-.69.36-.68.21-1.67-.54-2.05-1.43-.73-2.87-1.46-4.3-2.19-.36-.18-.76-.26-1.16-.15-.35.1-.73.36-.9.69-.36.68-.21,1.67.54,2.05h0Z"/>
    <path class="cls-1" d="M254.45,991.37c-7.69-16.52-10.42-35.3-7.73-53.32.28-1.89-2.61-2.7-2.89-.8-1.11,7.4-7.46,12.38-13.54,15.92-6.96,4.06-14.74,6.72-22.73,7.78-4.49.6-9.04.67-13.55.28-1.56-.14-1.93,2.06-.76,2.8,6.3,3.92,10.69,10.27,13.04,17.23,2.74,8.11,2.67,16.83,1.06,25.16-.99,5.12-2.52,10.11-4.31,15.01l2.95.4c.49-7.25,4.49-13.69,9.76-18.51,6.01-5.5,13.67-8.67,21.41-10.87,4.64-1.32,9.37-2.31,14.09-3.29,1.89-.39,1.09-3.29-.8-2.89-16.24,3.39-34.48,7.77-43.56,23.14-2.24,3.8-3.61,8.02-3.9,12.42-.12,1.79,2.4,1.89,2.95.4,6.04-16.52,9.05-36.23-1.62-51.6-2.55-3.68-5.75-6.82-9.55-9.19l-.76,2.8c8.5.74,17.15-.25,25.27-2.88,7.68-2.49,15.56-6.37,21.32-12.13,3.06-3.05,5.47-6.84,6.12-11.17l-2.89-.8c-2.82,18.9-.03,38.31,8.03,55.64.81,1.75,3.4.23,2.59-1.51h0Z"/>
    <path class="cls-1" d="M537.68,1235.79c-.72-15.65-3.52-31.19-8.4-46.08-1.4-4.28-2.98-8.5-4.71-12.66-.31-.75-.99-1.27-1.85-1.05-.71.19-1.36,1.1-1.05,1.85,7.66,18.39,12.09,38.04,13,57.94.09,1.92,3.09,1.93,3,0h0Z"/>
    <path class="cls-1" d="M524.79,1178.09c.9-6.42-6.4-10.54-12.08-8.93-7.28,2.06-10.71,10.43-13.54,16.65-3.71,8.14-6.83,16.55-9.29,25.16-1.17,4.09-2.41,8.28-3.01,12.5-.51,3.54-.14,7.43,2.72,9.94,4.83,4.24,12.31,1.61,17.24-1.03,3.72-2,7.15-4.6,10.66-6.95,3.93-2.63,7.86-5.27,11.79-7.9,4-2.68,8.01-5.35,12-8.04,2.94-1.98,5.89-4.5,7.31-7.83,1.34-3.13.55-6.6-2.33-8.56-3.09-2.1-7.4-1.84-10.96-1.97-19.03-.69-38.11-.12-57.07,1.71-2.38.23-4.76.48-7.13.75-1.19.13-1.79,1.16-1.3,2.26,4.31,9.67,15.13,13.47,24.21,17.21,10.74,4.43,20.54,10.66,28.85,18.8,4.68,4.59,8.83,9.69,12.36,15.21,1.04,1.62,3.64.12,2.59-1.51-6.31-9.85-14.5-18.4-24.04-25.15-4.74-3.36-9.81-6.25-15.12-8.6-4.81-2.13-9.8-3.88-14.48-6.31-4.95-2.57-9.47-5.94-11.79-11.16l-1.3,2.26c16.96-1.91,34.03-2.83,51.1-2.73,4.29.03,8.57.11,12.86.27,3,.11,7.11-.3,9.69,1.57,2.73,1.98,1.21,5.29-.54,7.34-2.42,2.84-5.73,4.73-8.79,6.78-7.1,4.76-14.21,9.52-21.31,14.28-5.18,3.47-10.74,8.03-17.25,8.49-2.29.16-4.66-.31-6.07-2.27-2.11-2.94-.94-7.02-.19-10.22,1.82-7.76,4.16-15.39,7-22.83,1.44-3.78,3.02-7.51,4.73-11.18,1.46-3.14,2.93-6.34,4.97-9.15,1.66-2.29,4.13-4.66,7.07-5.05,2.35-.31,5.12.62,6.62,2.5.65.82,1.04,1.88.9,2.93-.11.81.2,1.6,1.05,1.85.7.2,1.73-.25,1.85-1.05h0Z"/>
    <path class="cls-1" d="M587.88,1036.42c1.93,0,1.93-3,0-3s-1.93,3,0,3h0Z"/>
    <path class="cls-1" d="M212.04,1256.74h2.16c.38,0,.79-.17,1.06-.44s.46-.69.44-1.06-.14-.79-.44-1.06-.65-.44-1.06-.44h-2.16c-.38,0-.79.17-1.06.44s-.46.69-.44,1.06.14.79.44,1.06.65.44,1.06.44h0Z"/>
    <path class="cls-1" d="M240.12,752.62h-2.16c-.38,0-.79.17-1.06.44s-.46.69-.44,1.06.14.79.44,1.06.65.44,1.06.44h2.16c.38,0,.79-.17,1.06-.44s.46-.69.44-1.06-.14-.79-.44-1.06-.65-.44-1.06-.44h0Z"/>
    <path class="cls-1" d="M429.42,1212.98c-20.56,4.14-39.59,15.3-53.44,31.04-3.91,4.45-7.41,9.26-10.43,14.35-.99,1.66,1.61,3.18,2.59,1.51,10.39-17.54,26.72-31.47,45.63-39.09,5.32-2.14,10.83-3.79,16.45-4.92,1.89-.38,1.09-3.27-.8-2.89h0Z"/>
    <path class="cls-1" d="M435.19,1235.36c-8.67-1.95-17.87,1.52-23.19,8.6-.49.65-.1,1.67.54,2.05.76.46,1.57.11,2.05-.54,4.47-5.96,12.56-8.85,19.8-7.23,1.88.42,2.68-2.47.8-2.89h0Z"/>
    <circle class="cls-2" cx="1106.56" cy="500.52" r="74"/>
    <path class="cls-1" d="M1073.98,428.87c-4.92-10.59-11.15-22.68-22.36-27.76-8.51-3.85-20.57-2.88-26.71,4.82-3.87,4.86-4.13,11.21-2.43,16.99,2.02,6.85,5.98,13.14,9.37,19.37,6.9,12.68,14.05,25.24,21.81,37.42,14.85,23.3,32.09,45.33,53.36,63.12,9.92,8.29,20.63,15.67,32.11,21.63,5.77,3,11.74,5.64,17.85,7.87,5.7,2.08,11.51,3.91,17.55,4.66,5.37.67,11.05.48,16.09-1.67s9.13-6.65,10.54-12.15c1.49-5.82.34-12.13-2.34-17.43-2.93-5.81-7.83-10.45-12.91-14.39-2.51-1.95-5.1-3.77-7.7-5.58-1.59-1.11-3.09,1.49-1.51,2.59,9.62,6.7,20.91,14.75,22.03,27.49.48,5.44-1.13,10.88-5.44,14.43-3.9,3.22-9.18,4.12-14.11,4.05-5.55-.08-10.94-1.41-16.19-3.1-5.89-1.89-11.65-4.18-17.24-6.83-11.07-5.24-21.51-11.81-31.18-19.32-20.49-15.92-37.44-35.85-51.97-57.25-7.68-11.32-14.73-23.05-21.45-34.96-3.38-5.99-6.68-12.03-9.94-18.09-3.08-5.73-6.8-11.94-6.78-18.66.01-4.92,2.49-9.17,6.72-11.64,3.86-2.25,8.54-2.95,12.94-2.43,11.22,1.32,18.61,11.44,23.54,20.67,1.34,2.51,2.57,5.07,3.77,7.65.81,1.75,3.4.23,2.59-1.51h0Z"/>
    <path class="cls-1" d="M685.8,773.62h5.76c.78,0,1.54-.69,1.5-1.5s-.66-1.5-1.5-1.5h-5.76c-.78,0-1.54.69-1.5,1.5s.66,1.5,1.5,1.5h0Z"/>
    <path class="cls-1" d="M1179.66,184.6v11.52c0,1.93,3,1.93,3,0v-11.52c0-1.93-3-1.93-3,0h0Z"/>
    <path class="cls-1" d="M446.76,263.86h2.88c.38,0,.79-.17,1.06-.44s.46-.69.44-1.06-.14-.79-.44-1.06-.65-.44-1.06-.44h-2.88c-.38,0-.79.17-1.06.44s-.46.69-.44,1.06.14.79.44,1.06.65.44,1.06.44h0Z"/>
    <path class="cls-1" d="M929.1,127v2.88c0,.38.17.79.44,1.06s.69.46,1.06.44.79-.14,1.06-.44.44-.65.44-1.06v-2.88c0-.38-.17-.79-.44-1.06s-.69-.46-1.06-.44-.79.14-1.06.44-.44.65-.44,1.06h0Z"/>
    <path class="cls-1" d="M746.28,327.22c1.93,0,1.93-3,0-3s-1.93,3,0,3h0Z"/>
    <path class="cls-1" d="M625.32,125.62c1.93,0,1.93-3,0-3s-1.93,3,0,3h0Z"/>
    <path class="cls-1" d="M1064.9,310.26l-2.88,2.88c-.27.27-.44.68-.44,1.06s.16.81.44,1.06.66.46,1.06.44.77-.15,1.06-.44l2.88-2.88c.27-.27.44-.68.44-1.06s-.16-.81-.44-1.06-.66-.46-1.06-.44-.77.15-1.06.44h0Z"/>
    <path class="cls-1" d="M86.76,50.74c1.93,0,1.93-3,0-3s-1.93,3,0,3h0Z"/>
    <path class="cls-1" d="M66.6,255.22c1.93,0,1.93-3,0-3s-1.93,3,0,3h0Z"/>
    <path class="cls-1" d="M451.14,34.84v-2.88c0-.38-.17-.79-.44-1.06s-.69-.46-1.06-.44-.79.14-1.06.44-.44.65-.44,1.06v2.88c0,.38.17.79.44,1.06s.69.46,1.06.44.79-.14,1.06-.44.44-.65.44-1.06h0Z"/>
    <path class="cls-1" d="M1149.48,1214.26c1.93,0,1.93-3,0-3s-1.93,3,0,3h0Z"/>
    <path class="cls-1" d="M1163.88,808.18c1.93,0,1.93-3,0-3s-1.93,3,0,3h0Z"/>
    <path class="cls-1" d="M806.76,1401.46c1.93,0,1.93-3,0-3s-1.93,3,0,3h0Z"/>
    <path class="cls-1" d="M908.94,1065.88v2.88c0,.38.17.79.44,1.06s.69.46,1.06.44.79-.14,1.06-.44.44-.65.44-1.06v-2.88c0-.38-.17-.79-.44-1.06s-.69-.46-1.06-.44-.79.14-1.06.44-.44.65-.44,1.06h0Z"/>
    <path class="cls-1" d="M1191.92,1064.58c-1.92.96-3.84,1.92-5.76,2.88-.7.35-.96,1.4-.54,2.05.46.72,1.3.91,2.05.54,1.92-.96,3.84-1.92,5.76-2.88.7-.35.96-1.4.54-2.05-.46-.72-1.3-.91-2.05-.54h0Z"/>
    <path class="cls-1" d="M886.07,1509.82c.02-.12.06-.23.1-.35s-.21.42-.06.17c.03-.05.06-.11.09-.16.07-.12.2-.18-.13.16.04-.04.08-.09.12-.14.03-.03.06-.06.1-.09.12-.11.29-.15-.13.09.09-.05.18-.12.27-.17.05-.03.11-.06.17-.08.19-.1-.4.15-.18.08.23-.07.46-.14.7-.17l-.4.05c.31-.04.62-.04.93,0l-.4-.05c.24.04.47.1.7.18.21.07-.41-.2-.14-.06.04.02.08.04.12.06.08.04.42.29.16.09s.05.06.12.13c.03.03.06.07.09.1-.34-.34-.19-.25-.1-.12.03.05.06.11.09.16.11.18-.14-.4-.08-.19.04.13.08.25.1.38.06.35.39.72.69.9.32.19.8.27,1.16.15s.71-.34.9-.69c.2-.38.23-.74.15-1.16-.25-1.4-1.48-2.44-2.82-2.77-1.23-.31-2.72-.17-3.77.61-.7.52-1.26,1.22-1.44,2.09-.16.77.22,1.66,1.05,1.85.75.17,1.68-.23,1.85-1.05h0Z"/>
    <path class="cls-1" d="M1077.48,1366.9c.96,0,1.92,0,2.88,0,.38,0,.79-.17,1.06-.44s.46-.69.44-1.06-.14-.79-.44-1.06-.65-.44-1.06-.44c-.96,0-1.92,0-2.88,0-.38,0-.79.17-1.06.44s-.46.69-.44,1.06.14.79.44,1.06.65.44,1.06.44h0Z"/>
    <path class="cls-1" d="M958.34,1249.14l-2.88,2.88c-.27.27-.44.68-.44,1.06s.16.81.44,1.06.66.46,1.06.44.77-.15,1.06-.44l2.88-2.88c.27-.27.44-.68.44-1.06s-.16-.81-.44-1.06-.66-.46-1.06-.44-.77.15-1.06.44h0Z"/>
    <path class="cls-1" d="M934.86,1425.88v2.88c0,.38.17.79.44,1.06s.69.46,1.06.44.79-.14,1.06-.44.44-.65.44-1.06v-2.88c0-.38-.17-.79-.44-1.06s-.69-.46-1.06-.44-.79.14-1.06.44-.44.65-.44,1.06h0Z"/>
    <path class="cls-1" d="M1097.64,1764.34c1.93,0,1.93-3,0-3s-1.93,3,0,3h0Z"/>
    <path class="cls-1" d="M1010.18,1568.06c.96.96,1.92,1.92,2.88,2.88.27.27.68.44,1.06.44s.81-.16,1.06-.44.46-.66.44-1.06-.15-.77-.44-1.06c-.96-.96-1.92-1.92-2.88-2.88-.27-.27-.68-.44-1.06-.44s-.81.16-1.06.44-.46.66-.44,1.06.15.77.44,1.06h0Z"/>
    <path class="cls-1" d="M1143.72,1461.94c1.93,0,1.93-3,0-3s-1.93,3,0,3h0Z"/>
    <path class="cls-1" d="M1194.5,1285.82c.96.96,1.92,1.92,2.88,2.88.27.27.68.44,1.06.44s.81-.16,1.06-.44.46-.66.44-1.06-.15-.77-.44-1.06c-.96-.96-1.92-1.92-2.88-2.88-.27-.27-.68-.44-1.06-.44s-.81.16-1.06.44-.46.66-.44,1.06.15.77.44,1.06h0Z"/>
    <path class="cls-1" d="M1117.8,2032.18c1.93,0,1.93-3,0-3s-1.93,3,0,3h0Z"/>
    <path class="cls-1" d="M929.14,1786.28c.38,1.53,1.54,2.84,2.96,3.5,1.59.74,3.32.8,4.91.04.71-.34.95-1.41.54-2.05-.47-.73-1.29-.9-2.05-.54-.04.02-.09.04-.13.06l.23-.1s-.16.06-.2.07c-.13.04-.27.08-.41.11-.13.03-.36.01.12,0-.06,0-.12.01-.18.02-.13,0-.26.01-.39,0-.16,0-.62-.1-.09,0-.14-.03-.28-.05-.42-.08-.13-.03-.25-.07-.38-.11-.07-.02-.13-.05-.2-.07-.15-.05.38.18.1.04-.25-.12-.48-.26-.7-.42-.21-.14.28.24.08.06-.05-.05-.11-.09-.16-.14-.1-.09-.19-.18-.27-.28-.04-.04-.08-.09-.12-.13-.18-.2.2.29.06.08-.08-.12-.16-.23-.22-.36-.03-.06-.06-.13-.1-.19-.12-.23.13.36.04.1-.05-.14-.09-.27-.13-.41-.19-.76-1.09-1.29-1.85-1.05s-1.25,1.03-1.05,1.85h0Z"/>
    <path class="cls-1" d="M1183.06,1612.48c-.97,1.91-1.95,3.83-2.92,5.74-.36.7-.21,1.66.54,2.05.68.36,1.67.21,2.05-.54.97-1.91,1.95-3.83,2.92-5.74.36-.7.21-1.66-.54-2.05-.68-.36-1.67-.21-2.05.54h0Z"/>
    <path class="cls-1" d="M968.04,2020.66c1.93,0,1.93-3,0-3s-1.93,3,0,3h0Z"/>
    <path class="cls-1" d="M1195.56,1868.02c1.93,0,1.93-3,0-3s-1.93,3,0,3h0Z"/>
    <path class="cls-1" d="M582.06,1901.08c0,2.88,0,5.76,0,8.64,0,.78.69,1.54,1.5,1.5s1.5-.66,1.5-1.5c0-2.88,0-5.76,0-8.64,0-.78-.69-1.54-1.5-1.5s-1.5.66-1.5,1.5h0Z"/>
    <path class="cls-1" d="M402.12,2239.54h4.32c.78,0,1.54-.69,1.5-1.5s-.66-1.5-1.5-1.5h-4.32c-.78,0-1.54.69-1.5,1.5s.66,1.5,1.5,1.5h0Z"/>
    <path class="cls-1" d="M52.2,1410.1c1.93,0,1.93-3,0-3s-1.93,3,0,3h0Z"/>
    <path class="cls-1" d="M388.1,1457.18c1.44,1.44,2.88,2.88,4.32,4.32.56.56,1.57.6,2.12,0s.59-1.53,0-2.12c-1.44-1.44-2.88-2.88-4.32-4.32-.56-.56-1.57-.6-2.12,0s-.59,1.53,0,2.12h0Z"/>
    <path class="cls-1" d="M181.8,1984.66c1.93,0,1.93-3,0-3s-1.93,3,0,3h0Z"/>
    <path class="cls-1" d="M590.7,1572.76v4.32c0,.78.69,1.54,1.5,1.5s1.5-.66,1.5-1.5v-4.32c0-.78-.69-1.54-1.5-1.5s-1.5.66-1.5,1.5h0Z"/>
    <path class="cls-1" d="M396.3,998.2v4.32c0,.78.69,1.54,1.5,1.5s1.5-.66,1.5-1.5v-4.32c0-.78-.69-1.54-1.5-1.5s-1.5.66-1.5,1.5h0Z"/>
    <path class="cls-1" d="M142.92,2334.58c1.93,0,1.93-3,0-3s-1.93,3,0,3h0Z"/>
    <path class="cls-1" d="M160.2,1816.18c1.44,0,2.88,0,4.32,0,.78,0,1.54-.69,1.5-1.5s-.66-1.5-1.5-1.5c-1.44,0-2.88,0-4.32,0-.78,0-1.54.69-1.5,1.5s.66,1.5,1.5,1.5h0Z"/>
    <path class="cls-1" d="M272.52,2226.58c1.93,0,1.93-3,0-3s-1.93,3,0,3h0Z"/>
    <path class="cls-1" d="M298.44,1984.66c1.93,0,1.93-3,0-3s-1.93,3,0,3h0Z"/>
    <path class="cls-1" d="M842.76,2325.94c1.93,0,1.93-3,0-3s-1.93,3,0,3h0Z"/>
    <path class="cls-1" d="M1100.9,2215.38c-1.44,1.44-2.88,2.88-4.32,4.32-.56.56-.6,1.57,0,2.12s1.53.59,2.12,0c1.44-1.44,2.88-2.88,4.32-4.32.56-.56.6-1.57,0-2.12s-1.53-.59-2.12,0h0Z"/>
    <path class="cls-1" d="M695.49,1975.94c.21.05.41.12.61.19.34.12-.28-.15.03.02.09.05.19.09.28.14.17.09.33.2.49.31.28.18-.05-.06.03.02.06.06.14.11.2.17.16.14.31.29.45.45.07.08.14.16.21.24.24.27-.18-.26.03.03.24.34.44.69.63,1.06.09.18.09.13,0-.02.05.09.08.2.11.3.07.2.13.41.19.61.04.15.16.47.13.63.03-.13-.03-.27,0-.03,0,.11.02.21.02.32,0,.19,0,.39,0,.58,0,.07.01.25-.03.32.03-.21.03-.25.02-.14,0,.05-.02.1-.03.16-.04.21-.09.41-.16.61-.03.08-.07.17-.09.25-.04.1-.02.07.05-.11-.03.07-.06.13-.09.19-.34.71-.22,1.65.54,2.05.67.35,1.69.22,2.05-.54,1.02-2.12.92-4.48-.06-6.6-.91-1.97-2.69-3.56-4.81-4.09-.76-.19-1.66.25-1.85,1.05s.23,1.64,1.05,1.85h0Z"/>
    <path class="cls-1" d="M540.36,2308.66c1.93,0,1.93-3,0-3s-1.93,3,0,3h0Z"/>
    <path class="cls-1" d="M890.87,2117.23c.16-.23-.21.26.07-.06.12-.1.09-.08-.1.07.05-.03.1-.06.15-.09.23-.1-.36.07.03-.01.05-.02.11-.03.16-.04.16-.03.11-.02-.15.02.02-.04.31,0,.35,0,.25-.01-.36-.08.04.02.12.03.24.07.35.11.29.09-.26-.14,0,0,.11.06.23.12.34.19.06.03.11.07.16.11.13.09.11.07-.07-.06.19.03.45.42.57.55.1.12.09.1-.05-.07.04.05.08.11.11.16.07.11.13.23.2.34.13.22-.09-.3.04.09.04.11.06.22.09.33.1.36.01-.25,0,.04,0,.14,0,.28-.01.43.02-.36-.03.15-.05.23-.04.16-.09.33-.14.48-.03.08-.06.16-.09.24.07-.17.07-.17,0-.01-.08.15-.15.3-.24.45s-.18.29-.28.43c-.05.07-.1.14-.15.21.09-.12.1-.13.03-.05-.46.52-.92,1.01-1.45,1.46-.27.24-.55.46-.83.68.25-.19-.18.14-.23.17-.14.11-.28.21-.42.31-.63.46-1.01,1.32-.54,2.05.4.63,1.37,1.03,2.05.54,2.2-1.61,4.76-3.6,5.24-6.47.24-1.42-.03-2.71-.92-3.85-.72-.93-1.76-1.69-2.92-1.97-1.57-.37-3.01.16-3.93,1.48-.45.64-.14,1.7.54,2.05.77.41,1.57.15,2.05-.54h0Z"/>
    <path class="cls-1" d="M1113.42,2346.04c0,1.44,0,2.88,0,4.32,0,.78.69,1.54,1.5,1.5s1.5-.66,1.5-1.5c0-1.44,0-2.88,0-4.32,0-.78-.69-1.54-1.5-1.5s-1.5.66-1.5,1.5h0Z"/>
    <path class="cls-1" d="M634.34,2247.74c1.44,1.44,2.88,2.88,4.32,4.32.56.56,1.57.6,2.12,0s.59-1.53,0-2.12c-1.44-1.44-2.88-2.88-4.32-4.32-.56-.56-1.57-.6-2.12,0s-.59,1.53,0,2.12h0Z"/>
    <path class="cls-1" d="M150.49,2080.19c6.45,2.93,11.31,8.7,13.03,15.58.47,1.87,3.36,1.08,2.89-.8-1.88-7.56-7.3-14.14-14.41-17.37-.74-.33-1.61-.21-2.05.54-.38.64-.2,1.72.54,2.05h0Z"/>
    <path class="cls-1" d="M1076.04,1747.06h4.32c.78,0,1.54-.69,1.5-1.5s-.66-1.5-1.5-1.5h-4.32c-.78,0-1.54.69-1.5,1.5s.66,1.5,1.5,1.5h0Z"/>
    <path class="cls-1" d="M95.4,1436.02c1.93,0,1.93-3,0-3s-1.93,3,0,3h0Z"/>
    <path class="cls-1" d="M522.02,2433.5c1.44,1.44,2.88,2.88,4.32,4.32.56.56,1.57.6,2.12,0s.59-1.53,0-2.12c-1.44-1.44-2.88-2.88-4.32-4.32-.56-.56-1.57-.6-2.12,0s-.59,1.53,0,2.12h0Z"/>
    <path class="cls-1" d="M168.84,2416.66h17.28c1.93,0,1.93-3,0-3h-17.28c-1.93,0-1.93,3,0,3h0Z"/>
    <path class="cls-1" d="M959.4,2412.34c1.93,0,1.93-3,0-3s-1.93,3,0,3h0Z"/>
    <path class="cls-1" d="M990.16,2422.98c-2.87-1.46-5.74-2.92-8.61-4.39-.7-.36-1.66-.21-2.05.54-.36.68-.21,1.67.54,2.05,2.87,1.46,5.74,2.92,8.61,4.39.7.36,1.66.21,2.05-.54.36-.68.21-1.67-.54-2.05h0Z"/>
    <path class="cls-1" d="M98.84,1568.99c1.45,2.88,2.89,5.75,4.34,8.63.35.7,1.4.96,2.05.54.72-.46.92-1.3.54-2.05-1.45-2.88-2.89-5.75-4.34-8.63-.35-.7-1.4-.96-2.05-.54-.72.46-.92,1.3-.54,2.05h0Z"/>
    <path class="cls-1" d="M335.82,1680.76v4.32c0,.78.69,1.54,1.5,1.5s1.5-.66,1.5-1.5v-4.32c0-.78-.69-1.54-1.5-1.5s-1.5.66-1.5,1.5h0Z"/>
    <path class="cls-1" d="M389.5,2040.04c.42-.31.78-.62,1.05-1.09s.36-.89.4-1.39c.03-.36-.03-.75-.13-1.1s-.26-.73-.46-1.05c-.79-1.3-2.23-2.37-3.8-2.39-.53,0-1.03.13-1.5.37s-.85.66-1.16,1.1c-.21.3-.25.81-.15,1.16s.36.73.69.9c.35.18.77.28,1.16.15s.66-.35.9-.69c.02-.03.04-.06.06-.08l-.23.3c.1-.13.21-.24.33-.34l-.3.23c.1-.07.21-.14.32-.19l-.36.15c.13-.05.26-.09.4-.11l-.4.05c.16-.02.32-.02.48,0l-.4-.05c.22.03.42.09.62.18l-.36-.15c.26.11.5.26.73.43l-.3-.23c.27.21.5.44.71.71l-.23-.3c.17.23.32.47.43.73l-.15-.36c.08.19.14.39.16.59l-.05-.4c.02.16.02.32,0,.47l.05-.4c-.02.14-.06.27-.11.4l.15-.36c-.05.12-.11.22-.19.32l.23-.3c-.1.13-.21.24-.34.34l.3-.23s-.04.03-.06.04c-.33.24-.58.49-.69.9-.1.36-.05.84.15,1.16s.51.6.9.69.84.08,1.16-.15h0Z"/>
    <circle class="cls-2" cx="490.77" cy="1507.54" r="56.85"/>
    <path class="cls-1" d="M500.16,1560.92c-3.25-6-3.24-13.6.16-19.55,2.81-4.92,7.55-8.29,12.26-11.24,4.78-3,9.8-5.7,14.07-9.43,4.56-3.98,7.26-8.96,8.69-14.81.85-3.47,1.37-7.01,2.38-10.43.48-1.64,1.07-3.25,1.91-4.74.43-.76.9-1.51,1.46-2.19.15-.18.5-.62.54-.66.04-.05.26-.02.29-.05.02,0,.04,0,.06.01.53.17.32-.33-.61-1.48-1.09,1.6,1.51,3.1,2.59,1.51.93-1.36-.14-2.77-1.57-2.99-1.69-.26-2.79.72-3.76,1.96-2.12,2.7-3.34,5.94-4.19,9.23-1.68,6.55-2.14,13.69-6.59,19.13-7.99,9.76-21.8,12.53-29.11,23.07-4.9,7.06-5.23,16.66-1.16,24.17.92,1.7,3.51.19,2.59-1.51h0Z"/>
    <path class="cls-1" d="M472.32,1558.47c-4.56-6.77-5.99-15.34-4.15-23.28.92-3.97,2.62-7.75,5.13-10.98,2.19-2.83,4.88-5.25,7.64-7.51,5.54-4.54,11.77-8.47,16.4-14.02,2.24-2.69,4.05-5.7,5.05-9.07,1.27-4.31,1.01-8.84.76-13.26-.28-4.97-.66-10.4,2.1-14.81,2.44-3.9,6.98-6.16,11.53-6,1.93.07,1.93-2.93,0-3-4.31-.15-8.54,1.52-11.66,4.48-3.38,3.21-4.8,7.64-5.09,12.2-.3,4.79.52,9.56.3,14.35-.18,4.03-1.38,7.73-3.65,11.06-4.19,6.16-10.81,10.33-16.55,14.89-6.34,5.04-11.83,10.79-14.27,18.71-2.84,9.22-1.54,19.71,3.87,27.75,1.07,1.59,3.67.09,2.59-1.51h0Z"/>
    <path class="cls-1" d="M445.26,1535.42c-1.07-5.87-.33-12.02,1.97-17.52s6.26-9.87,10.94-13.64c4.41-3.56,9.23-7.08,11.66-12.38,2.78-6.08,2.06-12.84,1.82-19.31-.23-6.12.26-13.23,5.3-17.46,1.48-1.24-.65-3.35-2.12-2.12-4.62,3.86-6,10.05-6.2,15.81-.23,6.61,1.28,13.46-.77,19.9-1.85,5.83-6.96,9.52-11.52,13.19-4.87,3.92-9,8.34-11.55,14.13-2.8,6.36-3.67,13.35-2.42,20.19.35,1.9,3.24,1.09,2.89-.8h0Z"/>
  </g>
</svg>